<?xml version="1.0" encoding="UTF-8" standalone="no"?>
<!DOCTYPE svg PUBLIC "-//W3C//DTD SVG 1.1//EN"
 "http://www.w3.org/Graphics/SVG/1.1/DTD/svg11.dtd">
<!-- Generated by graphviz version 2.40.1 (20161225.0304)
 -->
<!-- Title: %3 Pages: 1 -->
<svg width="590pt" height="476pt"
 viewBox="0.00 0.00 590.07 476.00" xmlns="http://www.w3.org/2000/svg" xmlns:xlink="http://www.w3.org/1999/xlink">
<g id="graph0" class="graph" transform="scale(1 1) rotate(0) translate(4 472)">
<title>%3</title>
<polygon fill="#ffffff" stroke="transparent" points="-4,4 -4,-472 586.075,-472 586.075,4 -4,4"/>
<!-- [root] aws_default_security_group.ue4 -->
<g id="node1" class="node">
<title>[root] aws_default_security_group.ue4</title>
<polygon fill="none" stroke="#000000" points="201.7907,-252 8.7907,-252 8.7907,-216 201.7907,-216 201.7907,-252"/>
<text text-anchor="middle" x="105.2907" y="-230.3" font-family="Times,serif" font-size="14.00" fill="#000000">aws_default_security_group.ue4</text>
</g>
<!-- [root] aws_vpc.ue4 -->
<g id="node4" class="node">
<title>[root] aws_vpc.ue4</title>
<polygon fill="none" stroke="#000000" points="231.7907,-180 144.7907,-180 144.7907,-144 231.7907,-144 231.7907,-180"/>
<text text-anchor="middle" x="188.2907" y="-158.3" font-family="Times,serif" font-size="14.00" fill="#000000">aws_vpc.ue4</text>
</g>
<!-- [root] aws_default_security_group.ue4&#45;&gt;[root] aws_vpc.ue4 -->
<g id="edge1" class="edge">
<title>[root] aws_default_security_group.ue4&#45;&gt;[root] aws_vpc.ue4</title>
<path fill="none" stroke="#000000" d="M126.2351,-215.8314C136.3598,-207.0485 148.6683,-196.3712 159.6455,-186.8489"/>
<polygon fill="#000000" stroke="#000000" points="162.0925,-189.3595 167.353,-180.1628 157.5056,-184.0718 162.0925,-189.3595"/>
</g>
<!-- [root] aws_instance.ue4 -->
<g id="node2" class="node">
<title>[root] aws_instance.ue4</title>
<polygon fill="none" stroke="#000000" points="244.2907,-324 132.2907,-324 132.2907,-288 244.2907,-288 244.2907,-324"/>
<text text-anchor="middle" x="188.2907" y="-302.3" font-family="Times,serif" font-size="14.00" fill="#000000">aws_instance.ue4</text>
</g>
<!-- [root] aws_instance.ue4&#45;&gt;[root] aws_default_security_group.ue4 -->
<g id="edge2" class="edge">
<title>[root] aws_instance.ue4&#45;&gt;[root] aws_default_security_group.ue4</title>
<path fill="none" stroke="#000000" d="M167.3463,-287.8314C157.2215,-279.0485 144.913,-268.3712 133.9359,-258.8489"/>
<polygon fill="#000000" stroke="#000000" points="136.0758,-256.0718 126.2284,-252.1628 131.4888,-261.3595 136.0758,-256.0718"/>
</g>
<!-- [root] aws_subnet.ue4 -->
<g id="node3" class="node">
<title>[root] aws_subnet.ue4</title>
<polygon fill="none" stroke="#000000" points="322.7907,-252 219.7907,-252 219.7907,-216 322.7907,-216 322.7907,-252"/>
<text text-anchor="middle" x="271.2907" y="-230.3" font-family="Times,serif" font-size="14.00" fill="#000000">aws_subnet.ue4</text>
</g>
<!-- [root] aws_instance.ue4&#45;&gt;[root] aws_subnet.ue4 -->
<g id="edge3" class="edge">
<title>[root] aws_instance.ue4&#45;&gt;[root] aws_subnet.ue4</title>
<path fill="none" stroke="#000000" d="M209.2351,-287.8314C219.3598,-279.0485 231.6683,-268.3712 242.6455,-258.8489"/>
<polygon fill="#000000" stroke="#000000" points="245.0925,-261.3595 250.353,-252.1628 240.5056,-256.0718 245.0925,-261.3595"/>
</g>
<!-- [root] aws_subnet.ue4&#45;&gt;[root] aws_vpc.ue4 -->
<g id="edge4" class="edge">
<title>[root] aws_subnet.ue4&#45;&gt;[root] aws_vpc.ue4</title>
<path fill="none" stroke="#000000" d="M250.3463,-215.8314C240.2215,-207.0485 227.913,-196.3712 216.9359,-186.8489"/>
<polygon fill="#000000" stroke="#000000" points="219.0758,-184.0718 209.2284,-180.1628 214.4888,-189.3595 219.0758,-184.0718"/>
</g>
<!-- [root] provider.aws -->
<g id="node5" class="node">
<title>[root] provider.aws</title>
<polygon fill="none" stroke="#000000" points="122.2907,-108 42.3573,-90 122.2907,-72 202.224,-90 122.2907,-108"/>
<text text-anchor="middle" x="122.2907" y="-86.3" font-family="Times,serif" font-size="14.00" fill="#000000">provider.aws</text>
</g>
<!-- [root] aws_vpc.ue4&#45;&gt;[root] provider.aws -->
<g id="edge5" class="edge">
<title>[root] aws_vpc.ue4&#45;&gt;[root] provider.aws</title>
<path fill="none" stroke="#000000" d="M171.6361,-143.8314C162.958,-134.3644 152.2623,-122.6963 143.0496,-112.6462"/>
<polygon fill="#000000" stroke="#000000" points="145.3834,-110.0124 136.0461,-105.0059 140.2233,-114.7425 145.3834,-110.0124"/>
</g>
<!-- [root] var.name -->
<g id="node6" class="node">
<title>[root] var.name</title>
<polygon fill="none" stroke="#000000" points="282.2907,-108 220.2907,-108 220.2907,-72 288.2907,-72 288.2907,-102 282.2907,-108"/>
<polyline fill="none" stroke="#000000" points="282.2907,-108 282.2907,-102 "/>
<polyline fill="none" stroke="#000000" points="288.2907,-102 282.2907,-102 "/>
<text text-anchor="middle" x="254.2907" y="-86.3" font-family="Times,serif" font-size="14.00" fill="#000000">var.name</text>
</g>
<!-- [root] aws_vpc.ue4&#45;&gt;[root] var.name -->
<g id="edge6" class="edge">
<title>[root] aws_vpc.ue4&#45;&gt;[root] var.name</title>
<path fill="none" stroke="#000000" d="M204.9452,-143.8314C212.7021,-135.3694 222.0708,-125.1489 230.5517,-115.8971"/>
<polygon fill="#000000" stroke="#000000" points="233.2346,-118.1499 237.4118,-108.4133 228.0745,-113.4198 233.2346,-118.1499"/>
</g>
<!-- [root] var.region -->
<g id="node7" class="node">
<title>[root] var.region</title>
<polygon fill="none" stroke="#000000" points="152.2907,-36 86.2907,-36 86.2907,0 158.2907,0 158.2907,-30 152.2907,-36"/>
<polyline fill="none" stroke="#000000" points="152.2907,-36 152.2907,-30 "/>
<polyline fill="none" stroke="#000000" points="158.2907,-30 152.2907,-30 "/>
<text text-anchor="middle" x="122.2907" y="-14.3" font-family="Times,serif" font-size="14.00" fill="#000000">var.region</text>
</g>
<!-- [root] provider.aws&#45;&gt;[root] var.region -->
<g id="edge10" class="edge">
<title>[root] provider.aws&#45;&gt;[root] var.region</title>
<path fill="none" stroke="#000000" d="M122.2907,-71.8314C122.2907,-64.131 122.2907,-54.9743 122.2907,-46.4166"/>
<polygon fill="#000000" stroke="#000000" points="125.7908,-46.4132 122.2907,-36.4133 118.7908,-46.4133 125.7908,-46.4132"/>
</g>
<!-- [root] var.vpc_cidr_block -->
<g id="node8" class="node">
<title>[root] var.vpc_cidr_block</title>
<polygon fill="none" stroke="#000000" points="460.2907,-324 344.2907,-324 344.2907,-288 466.2907,-288 466.2907,-318 460.2907,-324"/>
<polyline fill="none" stroke="#000000" points="460.2907,-324 460.2907,-318 "/>
<polyline fill="none" stroke="#000000" points="466.2907,-318 460.2907,-318 "/>
<text text-anchor="middle" x="405.2907" y="-302.3" font-family="Times,serif" font-size="14.00" fill="#000000">var.vpc_cidr_block</text>
</g>
<!-- [root] meta.count&#45;boundary (EachMode fixup) -->
<g id="node9" class="node">
<title>[root] meta.count&#45;boundary (EachMode fixup)</title>
<ellipse fill="none" stroke="#000000" cx="405.2907" cy="-378" rx="176.5689" ry="18"/>
<text text-anchor="middle" x="405.2907" y="-374.3" font-family="Times,serif" font-size="14.00" fill="#000000">[root] meta.count&#45;boundary (EachMode fixup)</text>
</g>
<!-- [root] meta.count&#45;boundary (EachMode fixup)&#45;&gt;[root] aws_instance.ue4 -->
<g id="edge7" class="edge">
<title>[root] meta.count&#45;boundary (EachMode fixup)&#45;&gt;[root] aws_instance.ue4</title>
<path fill="none" stroke="#000000" d="M353.3138,-360.7542C323.0879,-350.7254 284.7426,-338.0025 252.6237,-327.3455"/>
<polygon fill="#000000" stroke="#000000" points="253.4651,-323.9371 242.8716,-324.1098 251.2606,-330.581 253.4651,-323.9371"/>
</g>
<!-- [root] meta.count&#45;boundary (EachMode fixup)&#45;&gt;[root] var.vpc_cidr_block -->
<g id="edge8" class="edge">
<title>[root] meta.count&#45;boundary (EachMode fixup)&#45;&gt;[root] var.vpc_cidr_block</title>
<path fill="none" stroke="#000000" d="M405.2907,-359.8314C405.2907,-352.131 405.2907,-342.9743 405.2907,-334.4166"/>
<polygon fill="#000000" stroke="#000000" points="408.7908,-334.4132 405.2907,-324.4133 401.7908,-334.4133 408.7908,-334.4132"/>
</g>
<!-- [root] provider.aws (close) -->
<g id="node10" class="node">
<title>[root] provider.aws (close)</title>
<ellipse fill="none" stroke="#000000" cx="105.2907" cy="-378" rx="105.0817" ry="18"/>
<text text-anchor="middle" x="105.2907" y="-374.3" font-family="Times,serif" font-size="14.00" fill="#000000">[root] provider.aws (close)</text>
</g>
<!-- [root] provider.aws (close)&#45;&gt;[root] aws_instance.ue4 -->
<g id="edge9" class="edge">
<title>[root] provider.aws (close)&#45;&gt;[root] aws_instance.ue4</title>
<path fill="none" stroke="#000000" d="M125.8075,-360.2022C136.0056,-351.3557 148.4979,-340.5191 159.6248,-330.8668"/>
<polygon fill="#000000" stroke="#000000" points="162.1729,-333.2898 167.4333,-324.0931 157.5859,-328.0021 162.1729,-333.2898"/>
</g>
<!-- [root] root -->
<g id="node11" class="node">
<title>[root] root</title>
<ellipse fill="none" stroke="#000000" cx="255.2907" cy="-450" rx="47.3916" ry="18"/>
<text text-anchor="middle" x="255.2907" y="-446.3" font-family="Times,serif" font-size="14.00" fill="#000000">[root] root</text>
</g>
<!-- [root] root&#45;&gt;[root] meta.count&#45;boundary (EachMode fixup) -->
<g id="edge11" class="edge">
<title>[root] root&#45;&gt;[root] meta.count&#45;boundary (EachMode fixup)</title>
<path fill="none" stroke="#000000" d="M284.9258,-435.7751C306.1998,-425.5636 335.2741,-411.608 359.5181,-399.9708"/>
<polygon fill="#000000" stroke="#000000" points="361.0464,-403.1196 368.547,-395.6369 358.0172,-396.809 361.0464,-403.1196"/>
</g>
<!-- [root] root&#45;&gt;[root] provider.aws (close) -->
<g id="edge12" class="edge">
<title>[root] root&#45;&gt;[root] provider.aws (close)</title>
<path fill="none" stroke="#000000" d="M225.6555,-435.7751C204.003,-425.3819 174.2701,-411.1101 149.7737,-399.3519"/>
<polygon fill="#000000" stroke="#000000" points="151.1992,-396.1538 140.6694,-394.9818 148.17,-402.4645 151.1992,-396.1538"/>
</g>
</g>
</svg>
